<?xml version="1.0" encoding="UTF-8" standalone="no"?>
<svg
   xmlns:dc="http://purl.org/dc/elements/1.1/"
   xmlns:cc="http://creativecommons.org/ns#"
   xmlns:rdf="http://www.w3.org/1999/02/22-rdf-syntax-ns#"
   xmlns:svg="http://www.w3.org/2000/svg"
   xmlns="http://www.w3.org/2000/svg"
   viewBox="0 0 793.70001 408.34"
   height="408.34"
   width="793.70001"
   xml:space="preserve"
   id="svg2"
   version="1.1"><metadata
     id="metadata8"><rdf:RDF><cc:Work
         rdf:about=""><dc:format>image/svg+xml</dc:format><dc:type
           rdf:resource="http://purl.org/dc/dcmitype/StillImage" /></cc:Work></rdf:RDF></metadata><defs
     id="defs6"><clipPath
       id="clipPath18"
       clipPathUnits="userSpaceOnUse"><path
         id="path16"
         d="M 0,306.255 H 595.275 V 0 H 0 Z" /></clipPath></defs><g
     transform="matrix(1.3333333,0,0,-1.3333333,0,408.34)"
     id="g10"><g
       id="g12"><g
         clip-path="url(#clipPath18)"
         id="g14"><g
           transform="translate(56.9726,166.7977)"
           id="g20"><path
             id="path22"
             style="fill:#ffffff;fill-opacity:1;fill-rule:nonzero;stroke:none"
             d="M 0,0 C 0,-14.163 12.768,-19.11 21.961,-19.11 H 45.92 v 9.76 H 17.54 V 9.36 h 50.38 v -30.329 c 0,-18.64 -20.568,-16.851 -29.874,-16.851 H 12.817 c -19.706,0 -35.983,16.128 -36.086,35.834 -0.16,30.468 22.229,41.526 44.634,41.526 H 67.92 V 19.11 H 22.812 C 13.619,19.11 0,17.071 0,0" /></g><path
           id="path24"
           style="fill:#ffffff;fill-opacity:1;fill-rule:nonzero;stroke:none"
           d="m 186.763,155.733 h -48.681 v 19.574 h 48.681 z" /><path
           id="path26"
           style="fill:#ffffff;fill-opacity:1;fill-rule:nonzero;stroke:none"
           d="m 375.103,185.908 h -75.48 v 20.43 h 75.48 z" /><g
           transform="translate(561.5727,148.2077)"
           id="g28"><path
             id="path30"
             style="fill:#ffffff;fill-opacity:1;fill-rule:nonzero;stroke:none"
             d="m 0,0 v -20 h -66.98 v 78.13 h 21.36 l 0,-58.13 z" /></g><g
           transform="translate(268.2127,167.0577)"
           id="g32"><path
             id="path34"
             style="fill:#ffffff;fill-opacity:1;fill-rule:nonzero;stroke:none"
             d="M 0,0 C 0,-14.848 -10.939,-18.85 -22.785,-18.85 H -45.7 v 37.7 h 24.804 C -9.79,18.85 0,14.848 0,0 M 22.13,0.215 C 22.13,23.194 7.955,39.28 -17.322,39.28 H -67.7 v -78.13 h 46.293 c 20.201,0 43.537,8.683 43.537,39.065" /></g><g
           transform="translate(320.9727,157.8277)"
           id="g36"><path
             id="path38"
             style="fill:#ffffff;fill-opacity:1;fill-rule:nonzero;stroke:none"
             d="m 0,0 v -9.62 h 54.13 v -20 H -21.35 V 20 H 54.13 V 0 Z" /></g><g
           transform="translate(492.6327,128.2077)"
           id="g40"><path
             id="path42"
             style="fill:#ffffff;fill-opacity:1;fill-rule:nonzero;stroke:none"
             d="m 0,0 h -25.32 l -8.081,13.18 H -74.38 l 14.21,20 h 16.5 L -56.043,54.934 -90.04,0 h -24.25 l 17.49,29.267 13.136,20.643 c 4.877,6.998 7.949,14.535 14.165,19.793 5.946,5.021 16.526,7.581 24.069,9.937 z" /></g><g
           transform="translate(427.2727,276.3777)"
           id="g44"><path
             id="path46"
             style="fill:#ffffff;fill-opacity:1;fill-rule:nonzero;stroke:none"
             d="m 0,0 h -259.19 c -7.99,0 -14.47,-6.48 -14.47,-14.47 v -51.14 h 8.51 v 51.14 c 0,3.29 2.67,5.97 5.96,5.97 H 0 c 3.29,0 5.97,-2.68 5.97,-5.97 v -47.75 c 3.88,0.87 6.65,1.61 8.5,2.17 v 45.58 C 14.47,-6.48 7.99,0 0,0 m -96.5,-237.99 h -66.18 v 20.76 h 66.18 z m 102.47,35.23 c 0,-3.29 -2.68,-5.97 -5.97,-5.97 h -259.19 c -3.29,0 -5.96,2.68 -5.96,5.97 v 38.14 c -3.68,1.54 -6.59,2.82 -8.51,3.69 v -41.83 c 0,-7.99 6.48,-14.47 14.47,-14.47 h 88.01 v -20.76 h -32.61 c -2.34,0 -4.25,-1.91 -4.25,-4.25 0,-1.18 0.48,-2.24 1.25,-3.01 0.77,-0.77 1.83,-1.25 3,-1.25 h 148.25 c 2.35,0 4.26,1.91 4.26,4.26 0,1.17 -0.48,2.23 -1.25,3 -0.77,0.77 -1.83,1.25 -3.01,1.25 H -88 v 20.76 H 0 c 7.99,0 14.47,6.48 14.47,14.47 v 53.83 c -4.86,0.52 -8.5,0.76 -8.5,0.76 z" /></g></g></g></g></svg>